<?xml version="1.0" encoding="UTF-8"?>
<!DOCTYPE svg PUBLIC "-//W3C//DTD SVG 1.1//EN" "http://www.w3.org/Graphics/SVG/1.1/DTD/svg11.dtd">
<svg xmlns="http://www.w3.org/2000/svg" version="1.1" width="2192px" height="185px" style="shape-rendering:geometricPrecision; text-rendering:geometricPrecision; image-rendering:optimizeQuality; fill-rule:evenodd; clip-rule:evenodd" xmlns:xlink="http://www.w3.org/1999/xlink">
<g><path style="opacity:0.962" fill="#fe0000" d="M 1126.5,-0.5 C 1130.5,-0.5 1134.5,-0.5 1138.5,-0.5C 1138.33,42.5013 1138.5,85.5013 1139,128.5C 1139.5,130.333 1140.67,131.5 1142.5,132C 1146.15,132.499 1149.82,132.665 1153.5,132.5C 1153.5,135.5 1153.5,138.5 1153.5,141.5C 1137.5,141.5 1121.5,141.5 1105.5,141.5C 1105.5,138.5 1105.5,135.5 1105.5,132.5C 1109.18,132.665 1112.85,132.499 1116.5,132C 1118.33,131.5 1119.5,130.333 1120,128.5C 1120.5,90.1681 1120.67,51.8348 1120.5,13.5C 1115.5,13.5 1110.5,13.5 1105.5,13.5C 1105.23,10.8806 1105.56,8.3806 1106.5,6C 1113.38,4.12129 1120.05,1.95462 1126.5,-0.5 Z"/></g>
<g><path style="opacity:0.962" fill="#fe0000" d="M 1183.5,-0.5 C 1187.5,-0.5 1191.5,-0.5 1195.5,-0.5C 1195.33,42.5013 1195.5,85.5013 1196,128.5C 1196.5,130.333 1197.67,131.5 1199.5,132C 1203.15,132.499 1206.82,132.665 1210.5,132.5C 1210.5,135.5 1210.5,138.5 1210.5,141.5C 1194.5,141.5 1178.5,141.5 1162.5,141.5C 1162.5,138.5 1162.5,135.5 1162.5,132.5C 1166.18,132.665 1169.85,132.499 1173.5,132C 1175.33,131.5 1176.5,130.333 1177,128.5C 1177.5,90.1681 1177.67,51.8348 1177.5,13.5C 1172.5,13.5 1167.5,13.5 1162.5,13.5C 1162.23,10.8806 1162.56,8.3806 1163.5,6C 1170.38,4.12129 1177.05,1.95462 1183.5,-0.5 Z"/></g>
<g><path style="opacity:0.9" fill="#fe0000" d="M 318.5,4.5 C 332.222,4.94495 336.722,11.6116 332,24.5C 326.739,29.6101 320.906,30.4435 314.5,27C 306.952,17.7815 308.285,10.2815 318.5,4.5 Z"/></g>
<g><path style="opacity:0.924" fill="#fe0000" d="M -0.5,88.5 C -0.5,79.8333 -0.5,71.1667 -0.5,62.5C 7.98797,27.7067 30.3213,9.70673 66.5,8.5C 71.8724,8.59472 77.2057,9.09472 82.5,10C 90.1505,11.9962 97.8172,13.8295 105.5,15.5C 105.5,26.1667 105.5,36.8333 105.5,47.5C 101.167,47.5 96.8333,47.5 92.5,47.5C 91.9942,41.4637 91.1609,35.4637 90,29.5C 88.332,25.8345 85.4987,23.6678 81.5,23C 53.4653,16.2656 34.632,26.4323 25,53.5C 21.1553,70.6955 21.822,87.6955 27,104.5C 39.8143,129.444 59.6476,137.61 86.5,129C 87.8932,127.829 88.7265,126.329 89,124.5C 90.4611,118.194 91.7944,111.861 93,105.5C 97.0659,104.536 101.233,104.203 105.5,104.5C 105.82,115.415 105.487,126.248 104.5,137C 83.4673,145.305 62.1339,146.305 40.5,140C 17.7223,130.059 4.05567,112.892 -0.5,88.5 Z"/></g>
<g><path style="opacity:0.919" fill="#fe0000" d="M 1451.5,8.5 C 1456.87,8.17182 1462.21,8.50515 1467.5,9.5C 1482.61,48.7234 1497.44,88.0568 1512,127.5C 1512.5,128.667 1513.33,129.5 1514.5,130C 1517.79,130.826 1521.13,131.326 1524.5,131.5C 1524.5,134.833 1524.5,138.167 1524.5,141.5C 1508.83,141.5 1493.17,141.5 1477.5,141.5C 1477.5,138.167 1477.5,134.833 1477.5,131.5C 1481.18,131.665 1484.85,131.499 1488.5,131C 1489.52,130.481 1490.18,129.647 1490.5,128.5C 1486.43,117.134 1482.27,105.8 1478,94.5C 1470.74,93.8415 1463.41,93.5082 1456,93.5C 1448.59,93.5082 1441.26,93.8415 1434,94.5C 1429.83,105.667 1425.67,116.833 1421.5,128C 1421.82,129.653 1422.82,130.653 1424.5,131C 1428.15,131.499 1431.82,131.665 1435.5,131.5C 1435.5,134.833 1435.5,138.167 1435.5,141.5C 1422.17,141.5 1408.83,141.5 1395.5,141.5C 1395.5,138.167 1395.5,134.833 1395.5,131.5C 1398.87,131.326 1402.21,130.826 1405.5,130C 1406.67,129.5 1407.5,128.667 1408,127.5C 1422.61,87.8481 1437.11,48.1814 1451.5,8.5 Z M 1455.5,35.5 C 1461.72,50.9677 1467.72,66.6344 1473.5,82.5C 1461.85,83.4989 1450.19,83.8322 1438.5,83.5C 1444.16,67.5105 1449.83,51.5105 1455.5,35.5 Z"/></g>
<g><path style="opacity:0.941" fill="#fe0000" d="M 785.5,11.5 C 802.5,11.5 819.5,11.5 836.5,11.5C 836.817,14.5719 836.484,17.5719 835.5,20.5C 831.889,21.2618 828.222,21.7618 824.5,22C 823.333,22.5 822.5,23.3333 822,24.5C 821.667,51.1667 821.333,77.8333 821,104.5C 819.38,130.552 805.547,143.886 779.5,144.5C 770.544,144.009 761.877,142.176 753.5,139C 752.513,127.915 752.179,116.748 752.5,105.5C 756.833,105.5 761.167,105.5 765.5,105.5C 766.567,113.901 768.067,122.234 770,130.5C 784.945,136.164 794.611,131.164 799,115.5C 799.912,111.205 800.579,106.872 801,102.5C 801.667,76.5 801.667,50.5 801,24.5C 800.626,23.5838 800.126,22.7504 799.5,22C 794.802,21.6489 790.136,21.1489 785.5,20.5C 785.5,17.5 785.5,14.5 785.5,11.5 Z"/></g>
<g><path style="opacity:0.911" fill="#fe0000" d="M 994.5,11.5 C 1026.17,11.5 1057.83,11.5 1089.5,11.5C 1089.5,21.5 1089.5,31.5 1089.5,41.5C 1085.17,41.5 1080.83,41.5 1076.5,41.5C 1075.66,35.4498 1074.49,29.4498 1073,23.5C 1072.5,23 1072,22.5 1071.5,22C 1057.5,21.5001 1043.5,21.3334 1029.5,21.5C 1029.5,37.1667 1029.5,52.8333 1029.5,68.5C 1039.17,68.6665 1048.84,68.4998 1058.5,68C 1059.89,66.8289 1060.73,65.3289 1061,63.5C 1061.55,59.8296 1062.05,56.1629 1062.5,52.5C 1066.17,52.5 1069.83,52.5 1073.5,52.5C 1073.5,66.8333 1073.5,81.1667 1073.5,95.5C 1069.83,95.5 1066.17,95.5 1062.5,95.5C 1062.2,90.1708 1061.2,85.0041 1059.5,80C 1049.61,78.5505 1039.61,78.0505 1029.5,78.5C 1029.5,95.8333 1029.5,113.167 1029.5,130.5C 1045.84,130.667 1062.17,130.5 1078.5,130C 1081.49,123.226 1083.16,116.059 1083.5,108.5C 1087.5,108.5 1091.5,108.5 1095.5,108.5C 1095.5,119.5 1095.5,130.5 1095.5,141.5C 1061.83,141.5 1028.17,141.5 994.5,141.5C 994.5,138.167 994.5,134.833 994.5,131.5C 998.182,131.665 1001.85,131.499 1005.5,131C 1006.42,130.626 1007.25,130.126 1008,129.5C 1008.67,94.1667 1008.67,58.8333 1008,23.5C 1007.5,23 1007,22.5 1006.5,22C 1002.47,21.6082 998.472,21.1082 994.5,20.5C 994.5,17.5 994.5,14.5 994.5,11.5 Z"/></g>
<g><path style="opacity:0.921" fill="#fe0000" d="M 1551.5,24.5 C 1554.5,24.5 1557.5,24.5 1560.5,24.5C 1560.5,32.1667 1560.5,39.8333 1560.5,47.5C 1569.5,47.5 1578.5,47.5 1587.5,47.5C 1587.5,51.1667 1587.5,54.8333 1587.5,58.5C 1578.5,58.5 1569.5,58.5 1560.5,58.5C 1560.33,77.8362 1560.5,97.1695 1561,116.5C 1562.43,128.809 1569.27,133.643 1581.5,131C 1583.87,130.265 1586.2,129.432 1588.5,128.5C 1588.83,130 1589.17,131.5 1589.5,133C 1589.37,134.981 1588.7,136.647 1587.5,138C 1574.69,144.226 1561.69,144.893 1548.5,140C 1545.53,137.9 1543.7,135.066 1543,131.5C 1541.56,107.205 1541.06,82.8716 1541.5,58.5C 1537.5,58.5 1533.5,58.5 1529.5,58.5C 1529.19,55.7531 1529.52,53.0865 1530.5,50.5C 1534.86,48.9009 1539.03,46.9009 1543,44.5C 1545.57,37.6918 1548.41,31.0252 1551.5,24.5 Z"/></g>
<g><path style="opacity:0.925" fill="#fe0000" d="M 157.5,45.5 C 183.851,43.2408 201.018,54.5742 209,79.5C 214.378,101.357 208.878,119.857 192.5,135C 175.228,145.462 157.561,146.129 139.5,137C 122.503,124.031 115.67,106.864 119,85.5C 122.94,63.3965 135.773,50.0631 157.5,45.5 Z M 158.5,55.5 C 172.358,53.5172 181.525,59.1839 186,72.5C 190.667,87.1667 190.667,101.833 186,116.5C 179.573,132.972 168.406,137.472 152.5,130C 146.186,124.207 142.352,117.041 141,108.5C 137.752,92.5668 140.085,77.5668 148,63.5C 150.975,59.9525 154.475,57.2858 158.5,55.5 Z"/></g>
<g><path style="opacity:0.911" fill="#fe0000" d="M 274.5,45.5 C 279.951,45.159 285.118,46.159 290,48.5C 290.5,55.1583 290.666,61.825 290.5,68.5C 287.482,68.6646 284.482,68.498 281.5,68C 274.64,62.1207 267.64,62.1207 260.5,68C 258.333,70.1667 256.167,72.3333 254,74.5C 253.333,93.1667 253.333,111.833 254,130.5C 254.75,131.126 255.584,131.626 256.5,132C 261.155,132.499 265.821,132.666 270.5,132.5C 270.5,135.5 270.5,138.5 270.5,141.5C 254.167,141.5 237.833,141.5 221.5,141.5C 221.5,138.5 221.5,135.5 221.5,132.5C 225.911,132.979 230.078,132.312 234,130.5C 234.5,107.836 234.667,85.1691 234.5,62.5C 229.833,62.5 225.167,62.5 220.5,62.5C 220.232,59.8806 220.565,57.3806 221.5,55C 231.84,50.9387 242.506,48.4387 253.5,47.5C 253.334,52.8437 253.501,58.1771 254,63.5C 259.518,55.8035 266.351,49.8035 274.5,45.5 Z"/></g>
<g><path style="opacity:0.913" fill="#fe0000" d="M 320.5,45.5 C 323.833,45.5 327.167,45.5 330.5,45.5C 330.333,73.8353 330.5,102.169 331,130.5C 331.75,131.126 332.584,131.626 333.5,132C 337.152,132.499 340.818,132.665 344.5,132.5C 344.5,135.5 344.5,138.5 344.5,141.5C 328.833,141.5 313.167,141.5 297.5,141.5C 297.5,138.5 297.5,135.5 297.5,132.5C 300.85,132.665 304.183,132.498 307.5,132C 309.061,131.682 310.228,130.849 311,129.5C 311.5,106.502 311.667,83.5024 311.5,60.5C 307.167,60.5 302.833,60.5 298.5,60.5C 298.187,57.7531 298.52,55.0865 299.5,52.5C 306.671,50.3318 313.671,47.9985 320.5,45.5 Z"/></g>
<g><path style="opacity:0.921" fill="#fe0000" d="M 411.5,45.5 C 430.757,43.6969 441.257,52.3636 443,71.5C 443.333,91.1667 443.667,110.833 444,130.5C 447.583,132.29 451.416,132.957 455.5,132.5C 455.5,135.5 455.5,138.5 455.5,141.5C 441.167,141.5 426.833,141.5 412.5,141.5C 412.5,138.5 412.5,135.5 412.5,132.5C 416.839,133.154 420.673,132.154 424,129.5C 424.667,111.167 424.667,92.8333 424,74.5C 422.128,64.6364 416.128,59.9697 406,60.5C 399.219,61.0375 392.719,62.7042 386.5,65.5C 385.334,86.8255 385.167,108.159 386,129.5C 386.772,130.849 387.939,131.682 389.5,132C 392.146,132.497 394.813,132.664 397.5,132.5C 397.5,135.5 397.5,138.5 397.5,141.5C 382.833,141.5 368.167,141.5 353.5,141.5C 353.5,138.5 353.5,135.5 353.5,132.5C 357.911,132.979 362.078,132.312 366,130.5C 366.5,107.836 366.667,85.1691 366.5,62.5C 362.167,62.5 357.833,62.5 353.5,62.5C 353.5,59.8333 353.5,57.1667 353.5,54.5C 361.229,52.6469 368.896,50.4803 376.5,48C 379.482,47.502 382.482,47.3354 385.5,47.5C 385.183,50.5719 385.516,53.5719 386.5,56.5C 394.581,51.9524 402.915,48.2858 411.5,45.5 Z"/></g>
<g><path style="opacity:0.933" fill="#fe0000" d="M 520.5,45.5 C 536.69,43.3269 546.857,49.9935 551,65.5C 551.333,86.5 551.667,107.5 552,128.5C 552.5,130.333 553.667,131.5 555.5,132C 558.482,132.498 561.482,132.665 564.5,132.5C 564.5,135.5 564.5,138.5 564.5,141.5C 550.167,141.5 535.833,141.5 521.5,141.5C 521.5,138.5 521.5,135.5 521.5,132.5C 525.839,133.154 529.673,132.154 533,129.5C 533.924,109.795 533.59,90.1288 532,70.5C 528.82,63.0727 523.154,59.7393 515,60.5C 508.195,60.993 501.695,62.6596 495.5,65.5C 494.334,87.159 494.167,108.826 495,130.5C 498.62,132.183 502.454,132.85 506.5,132.5C 506.5,135.5 506.5,138.5 506.5,141.5C 491.833,141.5 477.167,141.5 462.5,141.5C 462.5,138.5 462.5,135.5 462.5,132.5C 466.911,132.979 471.078,132.312 475,130.5C 475.5,107.836 475.667,85.1691 475.5,62.5C 471.167,62.5 466.833,62.5 462.5,62.5C 462.5,59.8333 462.5,57.1667 462.5,54.5C 470.229,52.6469 477.896,50.4803 485.5,48C 488.482,47.502 491.482,47.3354 494.5,47.5C 494.183,50.5719 494.516,53.5719 495.5,56.5C 503.551,51.9696 511.884,48.303 520.5,45.5 Z"/></g>
<g><path style="opacity:0.913" fill="#fe0000" d="M 611.5,45.5 C 643.396,44.0667 658.063,59.4 655.5,91.5C 634.833,91.5 614.167,91.5 593.5,91.5C 593.029,104.597 597.363,115.764 606.5,125C 616.607,131.105 627.274,132.105 638.5,128C 644.408,125.465 649.908,122.298 655,118.5C 655.828,123.202 655.662,127.869 654.5,132.5C 637.587,143.376 619.587,145.876 600.5,140C 581.984,131.165 572.984,116.332 573.5,95.5C 573.926,69.1218 586.593,52.4551 611.5,45.5 Z M 615.5,55.5 C 630.666,57.3586 637.333,66.0253 635.5,81.5C 621.833,81.5 608.167,81.5 594.5,81.5C 595.397,67.6214 602.397,58.9547 615.5,55.5 Z"/></g>
<g><path style="opacity:0.913" fill="#fe0000" d="M 1259.5,45.5 C 1290.99,44.6623 1305.33,59.9957 1302.5,91.5C 1281.83,91.5 1261.17,91.5 1240.5,91.5C 1239.78,106.209 1245.11,118.043 1256.5,127C 1263.84,130.291 1271.5,131.291 1279.5,130C 1287.72,127.221 1295.39,123.388 1302.5,118.5C 1303.66,122.795 1303.83,127.129 1303,131.5C 1285.8,143.276 1267.3,146.11 1247.5,140C 1233.46,133.613 1224.96,122.78 1222,107.5C 1218.38,87.7861 1223.22,70.6194 1236.5,56C 1243.52,50.8209 1251.18,47.3209 1259.5,45.5 Z M 1262.5,55.5 C 1272.83,55.5749 1279.33,60.5749 1282,70.5C 1282.5,74.1516 1282.67,77.8183 1282.5,81.5C 1268.83,81.5 1255.17,81.5 1241.5,81.5C 1242.7,67.9808 1249.7,59.3141 1262.5,55.5 Z"/></g>
<g><path style="opacity:0.924" fill="#fe0000" d="M 1632.5,45.5 C 1642.59,44.5641 1652.26,46.0641 1661.5,50C 1666.58,53.9902 1669.75,59.1569 1671,65.5C 1671.33,86.8333 1671.67,108.167 1672,129.5C 1672.9,130.701 1674.07,131.535 1675.5,132C 1678.82,132.498 1682.15,132.665 1685.5,132.5C 1685.5,135.5 1685.5,138.5 1685.5,141.5C 1675.5,141.5 1665.5,141.5 1655.5,141.5C 1655.14,137.737 1654.31,134.07 1653,130.5C 1644,137.947 1633.67,142.28 1622,143.5C 1602.41,141.227 1594.08,130.227 1597,110.5C 1598.2,105.288 1601.03,101.122 1605.5,98C 1609.89,95.1394 1614.55,92.8061 1619.5,91C 1630.37,87.3659 1641.37,84.1992 1652.5,81.5C 1653.6,76.1543 1653.43,70.821 1652,65.5C 1648.67,58.7447 1643.17,55.4114 1635.5,55.5C 1631.12,55.9108 1626.78,56.5774 1622.5,57.5C 1622.5,63.1667 1622.5,68.8333 1622.5,74.5C 1615.77,74.7951 1609.11,74.4617 1602.5,73.5C 1599.3,64.9304 1601.63,58.097 1609.5,53C 1616.86,49.1552 1624.53,46.6552 1632.5,45.5 Z M 1650.5,90.5 C 1651.5,90.5 1652.5,90.5 1653.5,90.5C 1653.83,101.187 1653.5,111.854 1652.5,122.5C 1645.81,127.063 1638.48,130.063 1630.5,131.5C 1617.77,128.219 1613.6,120.219 1618,107.5C 1621.23,103.608 1625.06,100.442 1629.5,98C 1636.45,95.0242 1643.45,92.5242 1650.5,90.5 Z"/></g>
<g><path style="opacity:0.932" fill="#fe0000" d="M 1749.5,45.5 C 1766.12,43.3015 1776.28,50.3015 1780,66.5C 1780.33,87.5 1780.67,108.5 1781,129.5C 1781.9,130.701 1783.07,131.535 1784.5,132C 1787.48,132.498 1790.48,132.665 1793.5,132.5C 1793.5,135.5 1793.5,138.5 1793.5,141.5C 1778.83,141.5 1764.17,141.5 1749.5,141.5C 1749.5,138.5 1749.5,135.5 1749.5,132.5C 1752.52,132.665 1755.52,132.498 1758.5,132C 1760.33,131.5 1761.5,130.333 1762,128.5C 1762.67,111.833 1762.67,95.1667 1762,78.5C 1761.97,66.4662 1755.97,60.4662 1744,60.5C 1737.12,60.7088 1730.62,62.3755 1724.5,65.5C 1723.33,87.159 1723.17,108.826 1724,130.5C 1727.58,132.29 1731.42,132.957 1735.5,132.5C 1735.5,135.5 1735.5,138.5 1735.5,141.5C 1720.83,141.5 1706.17,141.5 1691.5,141.5C 1691.5,138.5 1691.5,135.5 1691.5,132.5C 1695.91,132.979 1700.08,132.312 1704,130.5C 1704.5,107.836 1704.67,85.1691 1704.5,62.5C 1700.17,62.5 1695.83,62.5 1691.5,62.5C 1691.5,59.8333 1691.5,57.1667 1691.5,54.5C 1699.24,52.6446 1706.9,50.4779 1714.5,48C 1717.48,47.502 1720.48,47.3354 1723.5,47.5C 1723.18,50.5719 1723.52,53.5719 1724.5,56.5C 1732.55,51.9696 1740.88,48.303 1749.5,45.5 Z"/></g>
<g><path style="opacity:0.921" fill="#fe0000" d="M 1851.5,184.5 C 1843.5,184.5 1835.5,184.5 1827.5,184.5C 1805.2,178.035 1798.36,164.035 1807,142.5C 1811.08,137.96 1816.08,134.96 1822,133.5C 1819.49,123.561 1821.99,115.061 1829.5,108C 1807.87,98.777 1801.7,83.277 1811,61.5C 1817.57,52.6279 1826.4,47.4613 1837.5,46C 1848.33,44.567 1858.67,46.2336 1868.5,51C 1877.16,51.4998 1885.83,51.6664 1894.5,51.5C 1894.5,54.8333 1894.5,58.1667 1894.5,61.5C 1888.46,61.1707 1882.46,61.5041 1876.5,62.5C 1885.31,82.2349 1879.98,96.7349 1860.5,106C 1853.28,108.037 1845.95,109.537 1838.5,110.5C 1837.57,114.094 1837.24,117.76 1837.5,121.5C 1850.97,121.633 1863.97,124.133 1876.5,129C 1887.47,134.114 1891.64,142.614 1889,154.5C 1885.76,164.404 1879.6,171.904 1870.5,177C 1864.28,180.121 1857.95,182.621 1851.5,184.5 Z M 1839.5,54.5 C 1846.73,53.3682 1852.57,55.7015 1857,61.5C 1864.09,74.8164 1862.59,86.9831 1852.5,98C 1839.13,102.896 1830.63,98.3956 1827,84.5C 1825.24,75.4151 1826.9,67.0818 1832,59.5C 1834.43,57.5476 1836.93,55.881 1839.5,54.5 Z M 1833.5,136.5 C 1845.41,136.539 1856.74,139.039 1867.5,144C 1872.91,149.16 1873.75,154.993 1870,161.5C 1861.23,174.313 1849.39,178.146 1834.5,173C 1821.66,165.824 1818.5,155.657 1825,142.5C 1827.64,140.109 1830.47,138.109 1833.5,136.5 Z"/></g>
<g><path style="opacity:0.915" fill="#fe0000" d="M 1939.5,45.5 C 1951,43.9598 1961.67,46.1264 1971.5,52C 1976.15,57.6185 1978.65,64.1185 1979,71.5C 1979.33,91.1667 1979.67,110.833 1980,130.5C 1983.92,132.312 1988.09,132.979 1992.5,132.5C 1992.5,135.5 1992.5,138.5 1992.5,141.5C 1982.83,141.666 1973.16,141.5 1963.5,141C 1962.46,137.428 1961.29,133.928 1960,130.5C 1949.53,139.656 1937.36,143.823 1923.5,143C 1910.32,139.646 1903.65,131.146 1903.5,117.5C 1903.41,112.51 1904.58,107.844 1907,103.5C 1915,95.7113 1924.5,90.5446 1935.5,88C 1943.68,85.7476 1951.84,83.581 1960,81.5C 1961.92,58.6133 1951.76,50.6133 1929.5,57.5C 1929.5,63.1667 1929.5,68.8333 1929.5,74.5C 1922.72,74.9204 1916.05,74.4204 1909.5,73C 1908.43,71.6871 1907.76,70.1871 1907.5,68.5C 1908.55,60.2737 1912.89,54.4404 1920.5,51C 1926.76,48.4592 1933.09,46.6258 1939.5,45.5 Z M 1957.5,90.5 C 1958.5,90.5 1959.5,90.5 1960.5,90.5C 1960.67,101.172 1960.5,111.839 1960,122.5C 1953.11,127.031 1945.61,130.031 1937.5,131.5C 1928.27,130.262 1923.6,124.929 1923.5,115.5C 1923.68,109.308 1926.35,104.475 1931.5,101C 1939.92,96.59 1948.58,93.09 1957.5,90.5 Z"/></g>
<g><path style="opacity:0.921" fill="#fe0000" d="M 2056.5,45.5 C 2075.76,43.6969 2086.26,52.3636 2088,71.5C 2088.33,91.1667 2088.67,110.833 2089,130.5C 2092.58,132.29 2096.42,132.957 2100.5,132.5C 2100.5,135.5 2100.5,138.5 2100.5,141.5C 2086.17,141.5 2071.83,141.5 2057.5,141.5C 2057.5,138.5 2057.5,135.5 2057.5,132.5C 2061.84,133.154 2065.67,132.154 2069,129.5C 2069.67,111.167 2069.67,92.8333 2069,74.5C 2067.13,64.6364 2061.13,59.9697 2051,60.5C 2044.22,61.0375 2037.72,62.7042 2031.5,65.5C 2030.33,86.8255 2030.17,108.159 2031,129.5C 2031.77,130.849 2032.94,131.682 2034.5,132C 2037.15,132.497 2039.81,132.664 2042.5,132.5C 2042.5,135.5 2042.5,138.5 2042.5,141.5C 2027.83,141.5 2013.17,141.5 1998.5,141.5C 1998.5,138.5 1998.5,135.5 1998.5,132.5C 2002.91,132.979 2007.08,132.312 2011,130.5C 2011.5,107.836 2011.67,85.1691 2011.5,62.5C 2007.17,62.5 2002.83,62.5 1998.5,62.5C 1998.5,59.8333 1998.5,57.1667 1998.5,54.5C 2006.23,52.6469 2013.9,50.4803 2021.5,48C 2024.48,47.502 2027.48,47.3354 2030.5,47.5C 2030.18,50.5719 2030.52,53.5719 2031.5,56.5C 2039.58,51.9524 2047.91,48.2858 2056.5,45.5 Z"/></g>
<g><path style="opacity:0.918" fill="#fe0000" d="M 2191.5,74.5 C 2191.5,80.1667 2191.5,85.8333 2191.5,91.5C 2170.83,91.5 2150.17,91.5 2129.5,91.5C 2129.39,102.064 2132.22,111.73 2138,120.5C 2146.33,129.275 2156.5,132.442 2168.5,130C 2176.75,127.208 2184.42,123.374 2191.5,118.5C 2191.5,123.167 2191.5,127.833 2191.5,132.5C 2182.03,137.489 2172.03,140.989 2161.5,143C 2128.21,144.539 2111.21,128.706 2110.5,95.5C 2112.02,58.7444 2131.02,42.5777 2167.5,47C 2176.36,49.1894 2182.86,54.3561 2187,62.5C 2188.63,66.5711 2190.13,70.5711 2191.5,74.5 Z M 2151.5,55.5 C 2161.83,55.5749 2168.33,60.5749 2171,70.5C 2171.5,74.1516 2171.67,77.8183 2171.5,81.5C 2157.83,81.5 2144.17,81.5 2130.5,81.5C 2131.77,67.9255 2138.77,59.2588 2151.5,55.5 Z"/></g>
<g><path style="opacity:0.919" fill="#fe0000" d="M 863.5,110.5 C 877.495,109.993 883.662,116.66 882,130.5C 879.742,137.396 874.908,141.063 867.5,141.5C 853.366,138.302 849.2,129.969 855,116.5C 857.671,114.098 860.505,112.098 863.5,110.5 Z"/></g>
</svg>
