<?xml version="1.0" standalone="no"?>
<!DOCTYPE svg PUBLIC "-//W3C//DTD SVG 20010904//EN"
 "http://www.w3.org/TR/2001/REC-SVG-20010904/DTD/svg10.dtd">
<svg version="1.0" xmlns="http://www.w3.org/2000/svg"
 width="331.000000pt" height="34.000000pt" viewBox="0 0 331.000000 34.000000"
 preserveAspectRatio="xMidYMid meet">

<g transform="translate(0.000000,34.000000) scale(0.100000,-0.100000)"
fill="#000000" stroke="none">
<path d="M480 315 c0 -18 5 -25 20 -25 15 0 20 7 20 25 0 18 -5 25 -20 25 -15
0 -20 -7 -20 -25z"/>
<path d="M1600 210 c0 -123 1 -130 20 -130 19 0 20 7 20 130 0 123 -1 130 -20
130 -19 0 -20 -7 -20 -130z"/>
<path d="M1680 210 c0 -123 1 -130 20 -130 19 0 20 7 20 130 0 123 -1 130 -20
130 -19 0 -20 -7 -20 -130z"/>
<path d="M35 306 c-49 -49 -45 -167 6 -211 31 -26 47 -29 87 -19 17 5 22 14
22 37 0 24 -3 28 -12 19 -18 -18 -53 -15 -71 6 -10 11 -17 36 -17 61 0 71 27
99 75 81 22 -8 25 -7 25 14 0 43 -76 51 -115 12z"/>
<path d="M1160 200 c0 -107 -3 -132 -15 -136 -22 -9 -20 -54 3 -54 50 1 62 37
62 189 l0 131 -25 0 -25 0 0 -130z"/>
<path d="M1430 205 l0 -125 65 0 c58 0 65 2 65 20 0 17 -7 20 -40 20 -38 0
-40 2 -40 30 0 28 3 30 35 30 31 0 35 3 35 25 0 22 -4 25 -35 25 -31 0 -35 3
-35 25 0 23 4 25 40 25 36 0 40 3 40 25 0 24 -2 25 -65 25 l-65 0 0 -125z"/>
<path d="M2036 228 c-14 -57 -29 -113 -32 -125 -5 -20 -2 -23 20 -23 19 0 26
5 26 20 0 17 7 20 40 20 33 0 40 -3 40 -20 0 -15 7 -20 25 -20 14 0 25 3 25 6
0 4 -14 60 -32 125 -30 115 -32 119 -58 119 -26 0 -28 -4 -54 -102z m64 13 c0
-5 3 -23 6 -40 6 -27 4 -31 -15 -31 -23 0 -24 3 -15 49 6 28 24 45 24 22z"/>
<path d="M2210 295 c0 -14 -4 -25 -10 -25 -5 0 -10 -11 -10 -25 0 -14 5 -25
10 -25 6 0 10 -26 10 -58 0 -65 11 -82 52 -82 21 0 28 5 28 19 0 10 -9 21 -20
24 -16 4 -20 14 -20 50 0 40 3 46 23 49 14 2 22 10 22 23 0 13 -8 21 -22 23
-17 3 -23 10 -23 28 0 17 -5 24 -20 24 -15 0 -20 -7 -20 -25z"/>
<path d="M201 244 c-31 -39 -29 -117 4 -149 30 -31 65 -32 93 -2 32 34 31 125
-1 155 -32 30 -71 28 -96 -4z m67 -26 c16 -16 15 -83 -2 -97 -32 -27 -60 44
-36 90 12 22 21 24 38 7z"/>
<path d="M360 175 c0 -88 1 -95 20 -95 18 0 20 7 20 58 0 60 11 82 42 82 13 0
18 8 18 25 0 27 -26 35 -48 13 -9 -9 -12 -9 -12 0 0 7 -9 12 -20 12 -19 0 -20
-7 -20 -95z"/>
<path d="M480 175 c0 -88 1 -95 20 -95 19 0 20 7 20 95 0 88 -1 95 -20 95 -19
0 -20 -7 -20 -95z"/>
<path d="M560 175 c0 -88 1 -95 20 -95 17 0 20 7 20 48 0 66 9 92 31 92 17 0
19 -8 19 -70 0 -68 1 -70 25 -70 24 0 25 3 24 58 -2 112 -25 152 -71 123 -16
-10 -23 -10 -26 -2 -2 6 -12 11 -23 11 -17 0 -19 -8 -19 -95z"/>
<path d="M737 263 c-4 -3 -7 -46 -7 -95 0 -87 0 -88 25 -88 24 0 25 2 25 65 0
51 4 67 16 72 24 9 34 -15 34 -79 0 -51 2 -58 20 -58 18 0 20 7 20 73 0 49 -5
80 -16 95 -16 23 -48 29 -60 11 -4 -8 -9 -8 -17 0 -12 12 -30 14 -40 4z"/>
<path d="M929 251 c-21 -16 -24 -28 -24 -81 0 -53 3 -65 24 -81 40 -33 111
-19 111 22 0 16 -4 19 -17 14 -43 -18 -61 -17 -72 4 -11 20 -9 21 39 21 l50 0
0 34 c0 41 -33 86 -65 86 -12 0 -33 -9 -46 -19z m61 -25 c0 -2 3 -11 6 -20 5
-13 -1 -16 -25 -16 -29 0 -31 2 -21 20 9 17 40 29 40 16z"/>
<path d="M1781 246 c-18 -19 -23 -36 -23 -76 0 -79 39 -113 110 -94 15 4 22
14 22 29 0 22 -2 22 -29 12 -23 -8 -33 -8 -45 2 -27 22 -18 31 29 31 53 0 62
13 45 65 -19 58 -70 73 -109 31z m67 -39 c3 -12 -3 -17 -22 -17 -28 0 -29 1
-20 25 8 20 38 15 42 -8z"/>
<path d="M2333 263 c-7 -2 -13 -13 -13 -22 0 -15 8 -18 36 -17 49 1 55 -20 9
-28 -25 -5 -39 -15 -47 -32 -22 -47 18 -106 58 -89 11 4 31 7 47 6 27 -3 27
-2 27 64 0 64 -11 102 -34 117 -12 9 -64 9 -83 1z m65 -125 c-5 -34 -38 -37
-38 -4 0 20 5 26 21 26 15 0 20 -5 17 -22z"/>
<path d="M2490 175 c0 -88 1 -95 20 -95 18 0 20 7 20 58 0 64 10 88 34 79 12
-5 16 -21 16 -72 0 -58 2 -65 20 -65 18 0 20 7 20 78 0 98 -14 123 -59 105
-17 -6 -31 -7 -31 -2 0 5 -9 9 -20 9 -19 0 -20 -7 -20 -95z"/>
<path d="M2677 252 c-25 -27 -31 -92 -13 -135 12 -31 20 -37 45 -37 16 0 32 6
34 13 3 6 6 2 6 -9 1 -30 -23 -48 -54 -40 -20 5 -25 3 -25 -14 0 -24 41 -37
79 -24 36 13 50 60 50 167 1 69 -2 89 -14 93 -8 4 -22 1 -29 -5 -10 -8 -16 -9
-21 -1 -10 16 -40 12 -58 -8z m71 -86 c-2 -33 -7 -41 -23 -41 -16 0 -21 8 -23
38 -4 46 13 73 35 55 9 -7 13 -26 11 -52z"/>
<path d="M2853 263 c-7 -2 -13 -13 -13 -22 0 -15 8 -18 36 -17 22 1 39 -4 41
-11 3 -8 -4 -13 -19 -13 -38 0 -68 -27 -68 -61 0 -62 39 -89 74 -53 9 8 16 11
16 5 0 -6 9 -11 20 -11 18 0 20 7 20 73 0 88 -16 117 -63 116 -18 0 -38 -3
-44 -6z m67 -117 c0 -7 -7 -19 -15 -26 -19 -16 -41 1 -32 24 8 20 47 21 47 2z"/>
<path d="M3007 263 c-4 -3 -7 -46 -7 -95 0 -81 2 -88 20 -88 17 0 20 7 21 43
1 59 12 91 32 95 15 3 17 -6 17 -67 0 -69 1 -71 25 -71 24 0 25 2 25 64 0 103
-27 145 -73 116 -15 -9 -22 -10 -25 -1 -4 12 -25 15 -35 4z"/>
<path d="M3191 244 c-31 -39 -29 -117 4 -149 25 -25 42 -29 83 -19 15 4 22 14
22 29 0 22 -2 22 -29 12 -23 -8 -33 -8 -45 2 -27 23 -18 31 35 31 l52 0 -6 41
c-10 77 -74 106 -116 53z m67 -37 c3 -12 -4 -17 -22 -17 -28 0 -33 9 -14 28
15 15 32 10 36 -11z"/>
<path d="M1260 110 c0 -23 4 -30 20 -30 16 0 20 7 20 30 0 23 -4 30 -20 30
-16 0 -20 -7 -20 -30z"/>
</g>
</svg>
