<?xml version="1.0" encoding="UTF-8"?>
<!DOCTYPE svg PUBLIC "-//W3C//DTD SVG 1.1//EN" "http://www.w3.org/Graphics/SVG/1.1/DTD/svg11.dtd">
<svg xmlns="http://www.w3.org/2000/svg" version="1.1" width="426px" height="36px" style="shape-rendering:geometricPrecision; text-rendering:geometricPrecision; image-rendering:optimizeQuality; fill-rule:evenodd; clip-rule:evenodd" xmlns:xlink="http://www.w3.org/1999/xlink">
<g><path style="opacity:0.68" fill="#fe0000" d="M 215.5,-0.5 C 217.5,-0.5 219.5,-0.5 221.5,-0.5C 221.169,7.85989 221.502,16.1932 222.5,24.5C 223.5,24.8333 224.167,25.5 224.5,26.5C 221.232,27.487 217.898,27.8204 214.5,27.5C 215.643,22.9645 216.309,18.2979 216.5,13.5C 216.429,9.31255 215.762,5.31255 214.5,1.5C 214.863,0.816537 215.196,0.14987 215.5,-0.5 Z"/></g>
<g><path style="opacity:0.68" fill="#fe0000" d="M 226.5,-0.5 C 228.5,-0.5 230.5,-0.5 232.5,-0.5C 232.169,7.85989 232.502,16.1932 233.5,24.5C 234.5,24.8333 235.167,25.5 235.5,26.5C 232.232,27.487 228.898,27.8204 225.5,27.5C 226.643,22.9645 227.309,18.2979 227.5,13.5C 227.429,9.31255 226.762,5.31255 225.5,1.5C 225.863,0.816537 226.196,0.14987 226.5,-0.5 Z"/></g>
<g><path style="opacity:0.711" fill="#fe0000" d="M -0.5,20.5 C -0.5,16.5 -0.5,12.5 -0.5,8.5C 4.71155,1.15368 11.5449,-0.846318 20,2.5C 20.4966,4.80982 20.6633,7.14316 20.5,9.5C 17.5299,9.25422 16.1966,7.58755 16.5,4.5C 8.9105,2.9088 4.9105,6.07547 4.5,14C 4.29682,22.2966 8.29682,25.7966 16.5,24.5C 16.1966,21.4124 17.5299,19.7458 20.5,19.5C 20.6633,21.8568 20.4966,24.1902 20,26.5C 11.6047,29.7231 4.77133,27.7231 -0.5,20.5 Z"/></g>
<g><path style="opacity:0.673" fill="#fe0000" d="M 59.5,0.5 C 61.1667,0.5 62.8333,0.5 64.5,0.5C 64.5,2.16667 64.5,3.83333 64.5,5.5C 60.5,6.16667 58.8333,4.5 59.5,0.5 Z"/></g>
<g><path style="opacity:0.691" fill="#fe0000" d="M 281.5,0.5 C 282.833,0.5 284.167,0.5 285.5,0.5C 288.167,8.5 290.833,16.5 293.5,24.5C 294.5,24.5 295.5,24.5 296.5,24.5C 296.5,25.5 296.5,26.5 296.5,27.5C 293.167,27.5 289.833,27.5 286.5,27.5C 289.772,19.4922 287.105,16.8256 278.5,19.5C 277.833,20.8333 277.167,22.1667 276.5,23.5C 277.853,24.5237 278.52,25.857 278.5,27.5C 275.833,27.5 273.167,27.5 270.5,27.5C 274.721,18.8627 278.388,9.86269 281.5,0.5 Z M 281.5,9.5 C 282.376,9.36912 283.043,9.70245 283.5,10.5C 286.701,15.2173 285.367,16.7173 279.5,15C 280.861,13.4157 281.528,11.5824 281.5,9.5 Z"/></g>
<g><path style="opacity:0.7" fill="#fe0000" d="M 151.5,1.5 C 155.167,1.5 158.833,1.5 162.5,1.5C 162.5,2.5 162.5,3.5 162.5,4.5C 161.5,4.5 160.5,4.5 159.5,4.5C 159.884,11.5888 159.384,18.5888 158,25.5C 154.166,28.5128 149.999,29.1794 145.5,27.5C 145.5,24.8333 145.5,22.1667 145.5,19.5C 146.675,19.281 147.675,19.6143 148.5,20.5C 149.052,22.3334 149.885,24.0001 151,25.5C 151.925,24.9535 152.758,24.2868 153.5,23.5C 154.46,17.2266 154.793,10.8933 154.5,4.5C 153.5,4.5 152.5,4.5 151.5,4.5C 151.5,3.5 151.5,2.5 151.5,1.5 Z"/></g>
<g><path style="opacity:0.709" fill="#fe0000" d="M 192.5,1.5 C 198.833,1.5 205.167,1.5 211.5,1.5C 211.5,3.5 211.5,5.5 211.5,7.5C 209.641,7.53909 208.308,6.70576 207.5,5C 205.19,4.50335 202.857,4.33669 200.5,4.5C 200.5,7.16667 200.5,9.83333 200.5,12.5C 202.167,12.5 203.833,12.5 205.5,12.5C 205.5,11.5 205.5,10.5 205.5,9.5C 206.5,9.5 207.5,9.5 208.5,9.5C 208.5,12.5 208.5,15.5 208.5,18.5C 207.5,18.5 206.5,18.5 205.5,18.5C 205.5,17.5 205.5,16.5 205.5,15.5C 203.833,15.5 202.167,15.5 200.5,15.5C 200.5,18.5 200.5,21.5 200.5,24.5C 203.5,24.5 206.5,24.5 209.5,24.5C 209.5,23.1667 209.5,21.8333 209.5,20.5C 210.5,20.5 211.5,20.5 212.5,20.5C 212.5,22.8333 212.5,25.1667 212.5,27.5C 205.833,27.5 199.167,27.5 192.5,27.5C 192.5,26.5 192.5,25.5 192.5,24.5C 193.5,24.5 194.5,24.5 195.5,24.5C 195.5,17.8333 195.5,11.1667 195.5,4.5C 194.5,4.5 193.5,4.5 192.5,4.5C 192.5,3.5 192.5,2.5 192.5,1.5 Z"/></g>
<g><path style="opacity:0.681" fill="#fe0000" d="M 300.5,4.5 C 301.5,4.5 302.5,4.5 303.5,4.5C 303.5,5.83333 303.5,7.16667 303.5,8.5C 305.167,8.5 306.833,8.5 308.5,8.5C 308.5,9.5 308.5,10.5 308.5,11.5C 306.833,11.5 305.167,11.5 303.5,11.5C 303.334,15.5138 303.501,19.5138 304,23.5C 305.356,24.3802 306.856,24.7135 308.5,24.5C 308.5,25.5 308.5,26.5 308.5,27.5C 305.5,27.5 302.5,27.5 299.5,27.5C 299.234,21.509 298.234,15.6756 296.5,10C 298.413,8.58744 299.746,6.7541 300.5,4.5 Z"/></g>
<g><path style="opacity:0.731" fill="#fe0000" d="M 27.5,8.5 C 38.1037,7.27453 42.2704,11.9412 40,22.5C 39.2155,24.286 38.0488,25.786 36.5,27C 25.3333,29.1667 20.8333,24.6667 23,13.5C 24.025,11.313 25.525,9.64638 27.5,8.5 Z M 30.5,10.5 C 34.26,11.4898 36.26,13.9898 36.5,18C 36.1905,21.4393 34.5239,23.9393 31.5,25.5C 28.2216,24.0511 26.8883,21.5511 27.5,18C 27.1102,14.8764 28.1102,12.3764 30.5,10.5 Z"/></g>
<g><path style="opacity:0.678" fill="#fe0000" d="M 45.5,8.5 C 47.451,8.22672 48.951,8.89339 50,10.5C 51.7889,8.77099 53.9556,8.10433 56.5,8.5C 56.5,10.1667 56.5,11.8333 56.5,13.5C 54.2478,12.6669 52.0811,12.6669 50,13.5C 48.8356,18.3551 49.669,22.6885 52.5,26.5C 49.1667,27.8333 45.8333,27.8333 42.5,26.5C 44.0419,24.121 44.7086,21.4543 44.5,18.5C 44.149,15.3776 43.4824,12.3776 42.5,9.5C 43.791,9.73731 44.791,9.40397 45.5,8.5 Z"/></g>
<g><path style="opacity:0.679" fill="#fe0000" d="M 58.5,8.5 C 60.5,8.5 62.5,8.5 64.5,8.5C 64.1056,15.0029 64.7723,21.3362 66.5,27.5C 63.5,27.5 60.5,27.5 57.5,27.5C 58.5092,24.4588 59.1759,21.2921 59.5,18C 59.3722,15.2927 58.7055,12.7927 57.5,10.5C 57.8627,9.81654 58.1961,9.14987 58.5,8.5 Z"/></g>
<g><path style="opacity:0.705" fill="#fe0000" d="M 70.5,8.5 C 75.3245,8.63051 80.1578,8.96384 85,9.5C 86.1606,14.4164 86.8272,19.4164 87,24.5C 87.6924,25.0253 88.1924,25.6919 88.5,26.5C 85.5719,27.4841 82.5719,27.8174 79.5,27.5C 81.4734,22.6415 81.8067,17.6415 80.5,12.5C 78.5841,11.7517 76.5841,11.7517 74.5,12.5C 73.8016,17.6851 74.8016,22.3517 77.5,26.5C 74.1667,27.8333 70.8333,27.8333 67.5,26.5C 70.1984,22.3517 71.1984,17.6851 70.5,12.5C 69.5,12.5 68.5,12.5 67.5,12.5C 67.5,11.5 67.5,10.5 67.5,9.5C 68.791,9.73731 69.791,9.40397 70.5,8.5 Z"/></g>
<g><path style="opacity:0.682" fill="#fe0000" d="M 92.5,8.5 C 96.9323,8.56739 101.432,8.90073 106,9.5C 106.944,15.5589 108.111,21.5589 109.5,27.5C 106.428,27.8174 103.428,27.4841 100.5,26.5C 102.703,22.0576 103.036,17.391 101.5,12.5C 100.167,11.1667 98.8333,11.1667 97.5,12.5C 95.964,17.391 96.2973,22.0576 98.5,26.5C 95.5719,27.4841 92.5719,27.8174 89.5,27.5C 92.1667,21.5 92.1667,15.5 89.5,9.5C 90.791,9.73731 91.791,9.40397 92.5,8.5 Z"/></g>
<g><path style="opacity:0.713" fill="#fe0000" d="M 115.5,8.5 C 123.61,6.29289 127.61,9.29289 127.5,17.5C 123.5,17.5 119.5,17.5 115.5,17.5C 116.545,24.6552 120.212,26.3218 126.5,22.5C 127.9,24.7817 127.234,26.2817 124.5,27C 112.796,28.7792 108.629,23.9459 112,12.5C 112.69,10.6498 113.856,9.31643 115.5,8.5 Z M 118.5,10.5 C 121.297,10.9666 122.631,12.6333 122.5,15.5C 120.076,15.8076 117.743,15.4742 115.5,14.5C 116.524,13.1482 117.524,11.8149 118.5,10.5 Z"/></g>
<g><path style="opacity:0.721" fill="#fe0000" d="M 241.5,8.5 C 249.254,6.69622 253.254,9.69622 253.5,17.5C 249.5,17.5 245.5,17.5 241.5,17.5C 242.471,24.6483 246.138,26.3149 252.5,22.5C 253.9,24.7817 253.234,26.2817 250.5,27C 239.838,29.3357 235.338,25.169 237,14.5C 237.804,11.8541 239.304,9.85408 241.5,8.5 Z M 244.5,10.5 C 247.297,10.9666 248.631,12.6333 248.5,15.5C 246.076,15.8076 243.743,15.4742 241.5,14.5C 242.172,12.8405 243.172,11.5072 244.5,10.5 Z"/></g>
<g><path style="opacity:0.709" fill="#fe0000" d="M 313.5,8.5 C 316.518,8.33537 319.518,8.50204 322.5,9C 323,9.5 323.5,10 324,10.5C 324.172,15.2018 324.672,19.8685 325.5,24.5C 326.833,25.8333 328.167,25.8333 329.5,24.5C 330.491,20.5546 330.824,16.5546 330.5,12.5C 329.5,12.5 328.5,12.5 327.5,12.5C 327.5,11.5 327.5,10.5 327.5,9.5C 333.3,9.03337 339.133,9.03337 345,9.5C 346.161,14.4164 346.827,19.4164 347,24.5C 347.692,25.0253 348.192,25.6919 348.5,26.5C 345.572,27.4841 342.572,27.8174 339.5,27.5C 341.473,22.6415 341.807,17.6415 340.5,12.5C 338.584,11.7517 336.584,11.7517 334.5,12.5C 333.802,17.6851 334.802,22.3517 337.5,26.5C 328.757,27.3023 320.09,27.469 311.5,27C 308.408,22.8821 309.075,19.5488 313.5,17C 315.74,16.023 318.073,15.523 320.5,15.5C 320.756,13.0876 319.756,11.4209 317.5,10.5C 315.889,11.3202 315.222,12.6536 315.5,14.5C 313.833,14.5 312.167,14.5 310.5,14.5C 310.028,11.6421 311.028,9.64207 313.5,8.5 Z M 319.5,17.5 C 320.793,19.3635 320.793,21.3635 319.5,23.5C 315.969,25.2826 314.469,24.2826 315,20.5C 316.409,19.2189 317.909,18.2189 319.5,17.5 Z"/></g>
<g><path style="opacity:0.699" fill="#fe0000" d="M 362.5,35.5 C 359.167,35.5 355.833,35.5 352.5,35.5C 350.613,34.2321 349.613,32.3987 349.5,30C 351.392,27.1868 353.059,24.1868 354.5,21C 349.679,17.399 349.346,13.399 353.5,9C 358.616,8.29057 363.616,8.79057 368.5,10.5C 367.271,11.2811 365.938,11.7811 364.5,12C 365.925,17.6211 363.592,20.9545 357.5,22C 361.014,22.8314 364.181,24.3314 367,26.5C 367.667,27.8333 367.667,29.1667 367,30.5C 365.807,32.4971 364.307,34.1638 362.5,35.5 Z M 356.5,10.5 C 357.822,10.33 358.989,10.6634 360,11.5C 360.667,13.5 360.667,15.5 360,17.5C 358.667,18.8333 357.333,18.8333 356,17.5C 355.297,15.0709 355.463,12.7375 356.5,10.5 Z M 355.5,26.5 C 357.861,26.6741 360.194,27.0074 362.5,27.5C 363.109,31.0602 361.609,33.0602 358,33.5C 354.568,32.1072 353.734,29.7738 355.5,26.5 Z"/></g>
<g><path style="opacity:0.736" fill="#fe0000" d="M 372.5,8.5 C 375.85,8.33499 379.183,8.50166 382.5,9C 383,9.5 383.5,10 384,10.5C 384.172,15.2018 384.672,19.8685 385.5,24.5C 386.833,25.8333 388.167,25.8333 389.5,24.5C 390.491,20.5546 390.824,16.5546 390.5,12.5C 389.5,12.5 388.5,12.5 387.5,12.5C 387.5,11.5 387.5,10.5 387.5,9.5C 391.694,8.93867 395.861,8.60533 400,8.5C 402.034,8.3536 403.701,9.02026 405,10.5C 405.172,15.2018 405.672,19.8685 406.5,24.5C 407.5,24.8333 408.167,25.5 408.5,26.5C 405.572,27.4841 402.572,27.8174 399.5,27.5C 401.269,23.0075 401.769,18.3408 401,13.5C 399.477,11.3799 397.644,11.0465 395.5,12.5C 393.805,17.6459 394.471,22.3126 397.5,26.5C 388.757,27.3023 380.09,27.469 371.5,27C 368.408,22.8821 369.075,19.5488 373.5,17C 375.74,16.023 378.073,15.523 380.5,15.5C 380.5,12.1667 378.833,10.5 375.5,10.5C 375.5,11.8333 375.5,13.1667 375.5,14.5C 368.949,14.9755 367.949,12.9755 372.5,8.5 Z M 379.5,17.5 C 380.793,19.3635 380.793,21.3635 379.5,23.5C 377.802,24.6808 376.135,24.6808 374.5,23.5C 373.167,22.5 373.167,21.5 374.5,20.5C 376.145,19.3037 377.811,18.3037 379.5,17.5 Z"/></g>
<g><path style="opacity:0.745" fill="#fe0000" d="M 425.5,11.5 C 425.5,13.5 425.5,15.5 425.5,17.5C 421.486,17.3345 417.486,17.5012 413.5,18C 415.563,24.6466 419.563,26.1466 425.5,22.5C 425.5,23.8333 425.5,25.1667 425.5,26.5C 411.966,29.8005 407.133,24.8005 411,11.5C 415.902,7.5265 420.736,7.5265 425.5,11.5 Z M 417.5,10.5 C 419.478,11.1444 420.811,12.4777 421.5,14.5C 419.257,15.4742 416.924,15.8076 414.5,15.5C 414.31,13.0411 415.31,11.3745 417.5,10.5 Z"/></g>
<g><path style="opacity:0.65" fill="#fe0000" d="M 166.5,20.5 C 170.976,20.8003 172.31,22.9669 170.5,27C 164.738,27.4178 163.404,25.2511 166.5,20.5 Z"/></g>
</svg>
